<svg width="47" height="57" viewBox="0 0 47 57" fill="none" xmlns="http://www.w3.org/2000/svg">
<g clip-path="url(#clip0_258_9839)">
<path fill-rule="evenodd" clip-rule="evenodd" d="M23.4987 0C36.4802 0 47 10.4631 47 23.3668H36.541C36.541 16.2054 30.7029 10.3991 23.4987 10.3991V0Z" fill="#7200e1"/>
<path fill-rule="evenodd" clip-rule="evenodd" d="M0 33.6333C0 20.726 10.5233 10.2665 23.5013 10.2665V20.6656C16.2987 20.6656 10.459 26.4703 10.459 33.6333C10.459 40.7968 16.2966 46.6009 23.5013 46.6009C30.7039 46.6009 36.5436 40.7963 36.5436 33.6333H47.0026C47.0026 46.5405 36.4793 57 23.5013 57C10.5202 57 0 46.54 0 33.6333Z" fill="#7200e1"/>
</g>
<defs>
<clipPath id="clip0_258_9839">
<rect width="47" height="57" fill="white"/>
</clipPath>
</defs>
</svg>
