<svg width="144" height="48" fill="none" xmlns="http://www.w3.org/2000/svg"><g clip-path="url(#prefix__a)" fill="#BCF124"><path d="M50.743 23.582V10.086h-4.101V8.58h9.756v1.512h-4.062v13.496l-1.593-.006zm7.407 0V8.58h1.494v6.305l-.34-.08a3.382 3.382 0 011.305-1.652 3.696 3.696 0 012.1-.604 4.001 4.001 0 012.041.523c.597.343 1.092.84 1.434 1.441a4.07 4.07 0 01.525 2.06v7.009h-1.49v-6.427a3.58 3.58 0 00-.359-1.671 2.601 2.601 0 00-.986-1.057 2.735 2.735 0 00-1.424-.373 2.786 2.786 0 00-1.433.373 2.625 2.625 0 00-1.005 1.067 3.483 3.483 0 00-.368 1.66v6.428H58.15zm14.497.241a4.043 4.043 0 01-1.812-.393 3.133 3.133 0 01-1.255-1.078 2.757 2.757 0 01-.459-1.571 3.322 3.322 0 01.36-1.54 3.086 3.086 0 011.115-1.18 5.182 5.182 0 011.93-.683l4.177-.706v1.37l-3.82.647c-.77.135-1.325.383-1.663.744a1.828 1.828 0 00-.508 1.288 1.586 1.586 0 00.568 1.228c.41.35.935.529 1.47.504a3.746 3.746 0 001.91-.472 3.374 3.374 0 001.274-1.28 3.558 3.558 0 00.459-1.793v-2.739a1.99 1.99 0 00-.697-1.571c-.464-.404-1.068-.605-1.812-.605a2.998 2.998 0 00-1.665.463c-.499.315-.896.77-1.143 1.31l-1.353-.743a3.52 3.52 0 01.945-1.249 5.13 5.13 0 011.484-.892 4.643 4.643 0 011.732-.331 4.52 4.52 0 012.084.454c.579.287 1.068.73 1.414 1.28.34.567.513 1.221.497 1.884v7.413H76.39v-2.156l.219.222c-.204.426-.5.802-.866 1.098-.41.34-.875.605-1.374.785-.552.2-1.135.298-1.722.292zm12.185-.121c-.955 0-1.69-.282-2.204-.846-.514-.563-.775-1.37-.782-2.417v-6.144h-1.972v-1.51h.503a1.351 1.351 0 001.075-.447c.27-.315.412-.72.399-1.137v-.907h1.493v2.498h2.351v1.51h-2.351v6.145c-.007.326.047.65.158.957.106.274.299.504.549.654.319.177.68.26 1.044.242.106 0 .233-.007.38-.02.147-.014.271-.027.377-.04v1.35a3.827 3.827 0 01-.538.09c-.202.012-.363.022-.482.022zm13.808.121a8.183 8.183 0 01-3.107-.583 7.556 7.556 0 01-3.48-2.838 7.69 7.69 0 01-1.278-4.334c-.01-1.05.19-2.092.588-3.062.38-.924.942-1.76 1.651-2.458a7.666 7.666 0 012.499-1.635 8.652 8.652 0 016.251 0c.931.374 1.78.93 2.499 1.635a7.435 7.435 0 011.653 2.458c.397.97.597 2.012.588 3.062a7.684 7.684 0 01-1.279 4.334 7.551 7.551 0 01-3.48 2.838 8.181 8.181 0 01-3.105.583zm0-2.825a4.713 4.713 0 003.405-1.381 4.486 4.486 0 001.015-1.56 5.366 5.366 0 00.359-1.995 5.283 5.283 0 00-.359-1.981 4.632 4.632 0 00-1.015-1.561 4.513 4.513 0 00-1.522-1.017 5.203 5.203 0 00-3.764 0 4.51 4.51 0 00-1.524 1.017 4.66 4.66 0 00-1.016 1.56 5.292 5.292 0 00-.358 1.985 5.361 5.361 0 00.358 1.994 4.516 4.516 0 001.016 1.561c.438.437.955.782 1.524 1.018a4.82 4.82 0 001.881.366v-.006zm9.838 6.867V12.584h2.792v2.091l-.26-.605a3.587 3.587 0 011.469-1.278 4.77 4.77 0 012.121-.454 5.287 5.287 0 012.808.766 5.622 5.622 0 011.991 2.065c.496.887.75 1.892.735 2.91a5.871 5.871 0 01-.726 2.901 5.539 5.539 0 01-1.982 2.082 5.358 5.358 0 01-2.847.764 5.098 5.098 0 01-2.057-.412 3.616 3.616 0 01-1.523-1.219l.478-.624v6.297l-2.999-.003zm5.731-6.761a2.802 2.802 0 001.469-.382c.424-.255.769-.625.995-1.068.246-.485.37-1.025.359-1.571a3.265 3.265 0 00-.359-1.561 2.718 2.718 0 00-.995-1.068 2.745 2.745 0 00-1.469-.394 2.676 2.676 0 00-1.424.384 2.6 2.6 0 00-.976 1.067 3.722 3.722 0 000 3.143c.219.442.558.812.976 1.068.431.259.925.391 1.427.382h-.003zm12.9 2.719c-1.155 0-2.157-.258-3.007-.774a5.326 5.326 0 01-1.97-2.082 6.046 6.046 0 01-.698-2.9 5.869 5.869 0 01.727-2.941 5.478 5.478 0 011.96-2.035 5.295 5.295 0 012.793-.744 5.947 5.947 0 012.291.414 4.72 4.72 0 011.682 1.158 5.138 5.138 0 011.045 1.723 6.1 6.1 0 01.359 2.124c0 .216-.011.427-.03.635a2.26 2.26 0 01-.11.534h-8.143v-2.223h6.452l-1.414 1.048a2.863 2.863 0 00-.019-1.541 2.07 2.07 0 00-.767-1.068 2.25 2.25 0 00-1.345-.392 2.288 2.288 0 00-1.333.383 2.28 2.28 0 00-.836 1.127 4.447 4.447 0 00-.219 1.814 3.357 3.357 0 00.219 1.635c.184.454.504.838.915 1.099a3.047 3.047 0 002.857.07c.371-.209.676-.518.882-.892l2.39 1.147a3.65 3.65 0 01-1.007 1.413 4.926 4.926 0 01-1.617.936 6.092 6.092 0 01-2.057.332zm6.935-.241V12.58h2.792v2.175l-.159-.483c.22-.62.655-1.14 1.225-1.46a3.979 3.979 0 011.981-.474 4.327 4.327 0 012.16.523 3.71 3.71 0 011.444 1.462 4.44 4.44 0 01.518 2.185v7.071h-2.986v-6.424a2.323 2.323 0 00-.25-1.108 1.842 1.842 0 00-.697-.725 2.2 2.2 0 00-2.081 0c-.299.169-.544.42-.707.725a2.322 2.322 0 00-.248 1.108v6.427h-2.992zM54.88 43.125a7.427 7.427 0 01-2.957-.585 7.274 7.274 0 01-2.38-1.635 7.519 7.519 0 01-1.582-2.457 8.172 8.172 0 01-.569-3.082 8.382 8.382 0 01.558-3.093 7.227 7.227 0 011.562-2.446 7.13 7.13 0 012.39-1.623 7.583 7.583 0 012.977-.575 7.363 7.363 0 012.899.544 6.683 6.683 0 012.179 1.451 5.25 5.25 0 011.274 2.015l-2.728 1.329a3.75 3.75 0 00-1.403-1.86 3.682 3.682 0 00-2.22-.659 4.272 4.272 0 00-2.31.624 4.223 4.223 0 00-1.544 1.724c-.38.8-.567 1.68-.546 2.569-.02.89.168 1.773.546 2.578a4.192 4.192 0 001.543 1.732 4.259 4.259 0 002.31.624 3.682 3.682 0 002.22-.658 3.75 3.75 0 001.404-1.86l2.728 1.33c-.264.766-.7 1.46-1.274 2.026a6.703 6.703 0 01-2.18 1.45 7.365 7.365 0 01-2.898.537zm13.299 0a5.883 5.883 0 01-2.94-.744 5.688 5.688 0 01-2.111-2.045 5.942 5.942 0 010-5.911 5.719 5.719 0 012.112-2.037 6.15 6.15 0 015.863 0 5.745 5.745 0 012.102 2.035 5.942 5.942 0 010 5.911 5.715 5.715 0 01-2.102 2.046 5.825 5.825 0 01-2.924.745zm0-2.72c.501.012.995-.12 1.424-.383.41-.26.74-.629.955-1.067a3.42 3.42 0 00.35-1.572 3.36 3.36 0 00-.35-1.56 2.738 2.738 0 00-.955-1.068 2.569 2.569 0 00-1.424-.393 2.613 2.613 0 00-1.433.393c-.411.261-.745.63-.967 1.067-.24.484-.36 1.02-.348 1.561a3.43 3.43 0 00.348 1.572c.217.44.552.81.967 1.067.433.261.93.394 1.433.384zm7.568 2.479V31.882h2.792v2.676l-.294-.446c.159-.845.544-1.47 1.154-1.873a3.892 3.892 0 012.191-.604 4.146 4.146 0 012.38.695 2.977 2.977 0 011.284 1.864l-.857.08c.358-.899.87-1.564 1.534-1.995a4.189 4.189 0 012.33-.644 4.077 4.077 0 012.08.524c.6.344 1.092.849 1.424 1.46a4.45 4.45 0 01.515 2.194v7.07h-2.992v-6.426a2.475 2.475 0 00-.23-1.108 1.754 1.754 0 00-.648-.725 2.083 2.083 0 00-2.02 0 1.734 1.734 0 00-.657.725c-.161.346-.24.725-.23 1.108v6.427h-2.986v-6.427a2.475 2.475 0 00-.229-1.108 1.76 1.76 0 00-.647-.725 2.086 2.086 0 00-2.022 0 1.734 1.734 0 00-.656.725c-.161.346-.24.725-.23 1.108v6.427h-2.986zm18.498 4.289v-15.29h2.792v2.097l-.258-.605a3.592 3.592 0 011.47-1.279 4.749 4.749 0 012.12-.446 5.274 5.274 0 012.808.766 5.627 5.627 0 011.991 2.065c.496.887.75 1.89.735 2.91a5.877 5.877 0 01-.727 2.901 5.522 5.522 0 01-1.981 2.082 5.346 5.346 0 01-2.847.765 5.103 5.103 0 01-2.057-.413 3.6 3.6 0 01-1.523-1.218l.478-.624v6.304l-3-.015zm5.731-6.768a2.798 2.798 0 001.47-.383c.425-.254.77-.624.996-1.068a3.344 3.344 0 00.359-1.571 3.289 3.289 0 00-.359-1.561c-.23-.44-.575-.81-.996-1.068a2.749 2.749 0 00-1.47-.392c-.5-.008-.993.124-1.424.382a2.607 2.607 0 00-.975 1.069 3.712 3.712 0 000 3.141c.218.443.556.813.975 1.068.432.26.927.393 1.429.383h-.005zm11.035 2.719a4.962 4.962 0 01-2.031-.382 2.927 2.927 0 01-1.314-1.098 3.082 3.082 0 01-.458-1.695 3.183 3.183 0 01.419-1.636c.313-.51.757-.923 1.284-1.198a6.442 6.442 0 012.16-.685l3.325-.544v2.216l-2.793.503a2.06 2.06 0 00-.975.413 1.05 1.05 0 00-.34.836.932.932 0 00.379.786c.273.195.602.295.936.283a2.55 2.55 0 001.294-.323c.363-.206.663-.51.867-.877.206-.372.313-.792.308-1.218v-2.868a1.337 1.337 0 00-.488-1.048c-.326-.282-.767-.423-1.322-.423a2.319 2.319 0 00-1.405.446 2.543 2.543 0 00-.882 1.167l-2.389-1.148a3.918 3.918 0 011.017-1.59 4.803 4.803 0 011.672-1.028 6.046 6.046 0 012.129-.363 5.576 5.576 0 012.431.504 3.933 3.933 0 011.642 1.399c.397.619.602 1.344.587 2.081v7.252h-2.792V41.11l.678-.12a5.34 5.34 0 01-1.056 1.198 3.91 3.91 0 01-1.294.704 5.164 5.164 0 01-1.589.232zm8.245-.24V31.882h2.792v2.177l-.16-.483c.22-.621.655-1.14 1.224-1.462a4.001 4.001 0 011.982-.473 4.315 4.315 0 012.161.524 3.71 3.71 0 011.443 1.46c.356.671.534 1.425.517 2.187v7.07h-2.988v-6.425a2.323 2.323 0 00-.248-1.108 1.832 1.832 0 00-.698-.725c-.319-.18-.68-.27-1.045-.262a2.054 2.054 0 00-1.028.262c-.3.168-.545.42-.707.725a2.311 2.311 0 00-.249 1.108v6.427h-2.996zm13.42 4.472c-.311 0-.62-.027-.926-.082a2.649 2.649 0 01-.786-.262v-2.476c.216.06.435.106.657.14.23.039.463.059.696.06.588 0 1.002-.148 1.255-.422.255-.288.463-.614.617-.968l.735-1.712-.039 2.518-4.78-12.268h3.207l3.166 8.722h-1.195l3.165-8.722h3.21l-4.66 12.027a6.74 6.74 0 01-1.075 1.913 4.266 4.266 0 01-1.444 1.148 4.138 4.138 0 01-1.803.384zM8.41 19.331H0A19.469 19.469 0 015.603 5.673 19.02 19.02 0 0119.104.004v8.509a10.65 10.65 0 00-7.556 3.174A10.9 10.9 0 008.41 19.33zm10.7 27.84a19.02 19.02 0 01-13.502-5.668A19.469 19.469 0 01.005 27.844h8.41c0 2.14.628 4.233 1.803 6.013a10.726 10.726 0 004.802 3.986 10.584 10.584 0 006.18.616 10.661 10.661 0 005.479-2.962 10.863 10.863 0 002.928-5.541c.412-2.1.2-4.276-.61-6.254a10.798 10.798 0 00-3.94-4.857 10.611 10.611 0 00-5.943-1.824V8.508a19 19 0 0113.512 5.662 19.446 19.446 0 015.596 13.67 19.446 19.446 0 01-5.596 13.67 18.998 18.998 0 01-13.512 5.661h-.005z"/></g><defs><clipPath id="prefix__a"><path fill="#fff" d="M0 0h144v47.356H0z"/></clipPath></defs></svg>