<svg width="144" height="54" viewBox="0 0 144 54" fill="none" xmlns="http://www.w3.org/2000/svg">
<g clip-path="url(#clip0_1019_5408)">
<path d="M50.7422 23.582V10.0857H46.6406V8.57971H56.3971V10.0917H52.3352V23.5879L50.7422 23.582Z" fill="black"/>
<path d="M58.1504 23.582V8.57971H59.6435V14.8848L59.304 14.8045C59.5538 14.1272 60.011 13.5485 60.609 13.1528C61.2338 12.7441 61.9651 12.5339 62.709 12.5492C63.4232 12.5379 64.1275 12.7185 64.7502 13.0725C65.3468 13.4147 65.842 13.9121 66.1845 14.5131C66.5384 15.1396 66.7195 15.8507 66.7092 16.5722V23.582H65.219V17.155C65.236 16.5767 65.1129 16.003 64.8604 15.4839C64.6371 15.0443 64.2952 14.6778 63.8744 14.4269C63.4418 14.1745 62.9496 14.0455 62.4503 14.0537C61.9484 14.0465 61.4536 14.1753 61.0175 14.4269C60.589 14.6789 60.2403 15.0491 60.0123 15.4943C59.7542 16.008 59.6274 16.5789 59.6435 17.155V23.582H58.1504Z" fill="black"/>
<path d="M72.647 23.8228C72.0213 23.8342 71.4013 23.6999 70.835 23.4303C70.3289 23.1911 69.8955 22.8188 69.58 22.3525C69.272 21.8884 69.1119 21.3399 69.1215 20.781C69.1154 20.2458 69.2385 19.7171 69.4801 19.2408C69.7412 18.7541 70.1263 18.3471 70.5955 18.0619C71.1883 17.7073 71.8445 17.4749 72.5265 17.378L76.703 16.6718V18.0425L72.8821 18.6892C72.1121 18.824 71.558 19.0718 71.22 19.4326C70.8886 19.7772 70.7058 20.2408 70.7116 20.7216C70.7096 20.9562 70.7597 21.1884 70.8581 21.4009C70.9565 21.6134 71.1008 21.8009 71.2803 21.9496C71.6903 22.2982 72.2148 22.4781 72.7499 22.4536C73.4167 22.4692 74.0759 22.3061 74.6603 21.9808C75.1921 21.6791 75.6326 21.2366 75.9344 20.7007C76.2424 20.1551 76.4007 19.5361 76.3929 18.9078V16.1693C76.4019 15.8711 76.3439 15.5748 76.2232 15.3026C76.1026 15.0303 75.9224 14.7894 75.6964 14.5979C75.232 14.1945 74.628 13.9928 73.8844 13.9928C73.2965 13.9802 72.7178 14.1413 72.219 14.4563C71.7202 14.7713 71.323 15.2266 71.076 15.7664L69.7226 15.0231C69.9411 14.5404 70.264 14.1136 70.6675 13.7742C71.109 13.3944 71.6109 13.0928 72.1518 12.8822C72.7034 12.662 73.2913 12.5495 73.8844 12.5507C74.6047 12.5338 75.3188 12.6897 75.9682 13.0056C76.547 13.2924 77.0362 13.7354 77.3819 14.2857C77.7223 14.8525 77.8947 15.5063 77.8787 16.1693V23.582H76.39V21.4262L76.6089 21.6478C76.4046 22.0744 76.1089 22.4497 75.7434 22.7464C75.333 23.0856 74.8683 23.3511 74.3693 23.5314C73.8167 23.7307 73.2336 23.8294 72.647 23.8228Z" fill="black"/>
<path d="M84.8314 23.7024C83.8761 23.7024 83.1414 23.4204 82.627 22.8565C82.1127 22.2925 81.8521 21.4867 81.8452 20.4391V14.2946H79.873V12.7841H80.3756C80.5763 12.7944 80.7768 12.7598 80.9628 12.6827C81.1487 12.6056 81.3156 12.4879 81.4514 12.3381C81.7211 12.0234 81.8634 11.6171 81.8496 11.2008V10.2939H83.3427V12.7915H85.694V14.302H83.3427V20.4465C83.3364 20.7729 83.3903 21.0975 83.5014 21.404C83.6066 21.6779 83.7996 21.9083 84.0496 22.0581C84.369 22.235 84.7307 22.3189 85.0944 22.3004C85.2002 22.3004 85.3266 22.293 85.4736 22.2796C85.6205 22.2662 85.7454 22.2529 85.8512 22.2395V23.5894C85.6743 23.6324 85.4946 23.6627 85.3134 23.6801C85.1106 23.692 84.9504 23.7024 84.8314 23.7024Z" fill="black"/>
<path d="M98.641 23.8228C97.578 23.8324 96.5232 23.6345 95.5343 23.24C94.1174 22.6714 92.9043 21.6816 92.0548 20.4013C91.2052 19.1209 90.7593 17.6102 90.7758 16.0682C90.7658 15.0177 90.9658 13.976 91.3637 13.0056C91.7442 12.0818 92.3061 11.2458 93.0155 10.5481C93.7348 9.84334 94.5835 9.28778 95.5137 8.91274C97.5264 8.13366 99.7526 8.13366 101.765 8.91274C102.696 9.28699 103.545 9.84264 104.264 10.5481C104.973 11.2461 105.535 12.082 105.917 13.0056C106.314 13.9762 106.514 15.0178 106.505 16.0682C106.522 17.6102 106.076 19.1212 105.226 20.4016C104.377 21.6821 103.163 22.6717 101.746 23.24C100.758 23.6343 99.7034 23.8322 98.641 23.8228ZM98.641 20.9981C99.286 21.0039 99.9257 20.8806 100.523 20.6353C101.092 20.3993 101.609 20.0534 102.046 19.6169C102.489 19.1744 102.835 18.6426 103.061 18.0559C103.306 17.4209 103.428 16.7439 103.42 16.0623C103.428 15.3844 103.307 14.7114 103.061 14.0805C102.831 13.4958 102.486 12.9646 102.046 12.5195C101.612 12.0791 101.094 11.733 100.523 11.5026C99.3119 11.0328 97.9715 11.0328 96.7599 11.5026C96.1888 11.733 95.6702 12.079 95.236 12.5195C94.7966 12.965 94.4512 13.4961 94.2205 14.0805C93.9749 14.7123 93.8531 15.3864 93.8619 16.0652C93.8537 16.7469 93.9754 17.4238 94.2205 18.0589C94.4476 18.6452 94.7935 19.177 95.236 19.6199C95.6736 20.0564 96.1913 20.4024 96.7599 20.6383C97.3569 20.8846 97.9962 21.0089 98.641 21.004V20.9981Z" fill="black"/>
<path d="M108.479 27.8651V12.5834H111.271V14.6752L111.011 14.0701C111.375 13.5153 111.883 13.0729 112.48 12.7915C113.144 12.4793 113.869 12.3242 114.601 12.3381C115.589 12.3252 116.561 12.5903 117.409 13.1037C118.238 13.6061 118.924 14.3177 119.4 15.1687C119.896 16.056 120.15 17.0606 120.135 18.0797C120.147 19.094 119.896 20.0938 119.409 20.9802C118.941 21.8386 118.257 22.5566 117.427 23.0616C116.566 23.578 115.581 23.8425 114.58 23.8258C113.874 23.8326 113.173 23.6925 112.523 23.414C111.915 23.1561 111.388 22.7344 111 22.1949L111.478 21.5705V27.8681L108.479 27.8651ZM114.21 21.1036C114.725 21.1139 115.233 20.9818 115.679 20.7216C116.103 20.4671 116.448 20.0972 116.674 19.6541C116.92 19.1683 117.044 18.6284 117.033 18.0827C117.045 17.5401 116.921 17.0033 116.674 16.5216C116.445 16.0809 116.101 15.7118 115.679 15.4542C115.235 15.1868 114.726 15.0503 114.21 15.0602C113.709 15.0521 113.216 15.1849 112.786 15.4438C112.367 15.6991 112.029 16.0693 111.81 16.5112C111.581 17.0026 111.462 17.5393 111.462 18.0827C111.462 18.6261 111.581 19.1627 111.81 19.6541C112.029 20.0958 112.368 20.4658 112.786 20.7216C113.217 20.9805 113.711 21.1128 114.213 21.1036H114.21Z" fill="black"/>
<path d="M127.108 23.8228C125.953 23.8228 124.951 23.5646 124.101 23.0483C123.269 22.5498 122.587 21.8299 122.131 20.9669C121.66 20.0749 121.42 19.0772 121.433 18.0663C121.414 17.0384 121.665 16.0238 122.16 15.1257C122.626 14.2855 123.302 13.5837 124.12 13.0904C124.966 12.5879 125.932 12.3307 126.913 12.347C127.696 12.3324 128.474 12.4728 129.204 12.7603C129.841 13.018 130.415 13.4132 130.886 13.9185C131.344 14.4169 131.699 15.0027 131.931 15.6415C132.176 16.3222 132.297 17.0418 132.29 17.766C132.29 17.9816 132.279 18.1927 132.26 18.4008C132.245 18.5826 132.208 18.7619 132.15 18.9346H124.007V16.712H130.459L129.045 17.7601C129.18 17.2543 129.173 16.7206 129.026 16.2184C128.892 15.7873 128.623 15.4124 128.259 15.1509C127.863 14.8799 127.392 14.7426 126.914 14.7584C126.441 14.7452 125.976 14.8791 125.581 15.142C125.192 15.4191 124.899 15.8135 124.745 16.2689C124.547 16.8513 124.473 17.4693 124.526 18.0827C124.462 18.6378 124.538 19.2002 124.745 19.7181C124.929 20.172 125.249 20.5562 125.661 20.8167C126.095 21.0617 126.583 21.1961 127.08 21.2083C127.578 21.2204 128.071 21.11 128.517 20.8866C128.888 20.6781 129.193 20.3691 129.399 19.9946L131.789 21.1423C131.571 21.6884 131.225 22.1731 130.782 22.5547C130.307 22.9677 129.758 23.2855 129.165 23.4913C128.503 23.7192 127.807 23.8313 127.108 23.8228Z" fill="black"/>
<path d="M134.043 23.582V12.5804H136.835V14.7555L136.676 14.2723C136.896 13.6517 137.331 13.1329 137.901 12.8123C138.51 12.4848 139.192 12.3215 139.882 12.3381C140.634 12.3212 141.378 12.5015 142.042 12.8614C142.65 13.2013 143.15 13.7079 143.486 14.3228C143.843 14.9938 144.021 15.7468 144.004 16.5083V23.579H141.018V17.155C141.028 16.7704 140.942 16.3895 140.768 16.0474C140.607 15.7447 140.366 15.4935 140.071 15.3219C139.751 15.1501 139.393 15.0602 139.031 15.0602C138.668 15.0602 138.311 15.1501 137.99 15.3219C137.691 15.4909 137.446 15.7426 137.283 16.0474C137.11 16.3897 137.025 16.7706 137.035 17.155V23.582H134.043Z" fill="black"/>
<path d="M54.8805 43.1246C53.866 43.134 52.8601 42.9353 51.9237 42.5403C51.031 42.1608 50.2221 41.6048 49.5445 40.9049C48.8623 40.199 48.3245 39.3639 47.9617 38.4474C47.5753 37.4675 47.3821 36.4205 47.393 35.3655C47.3826 34.3082 47.5722 33.2585 47.9514 32.2732C48.3022 31.3589 48.8336 30.5265 49.513 29.8269C50.1924 29.1273 51.0057 28.5751 51.9031 28.2041C52.8478 27.8136 53.86 27.618 54.8805 27.6288C55.8727 27.6128 56.858 27.7978 57.7784 28.1729C58.592 28.5072 59.3325 29.0002 59.9578 29.6239C60.5303 30.1871 60.9664 30.8765 61.2319 31.6384L58.5044 32.9675C58.2443 32.2119 57.7525 31.5601 57.1006 31.1071C56.4488 30.6541 55.6709 30.4235 54.8805 30.449C54.0676 30.4325 53.2667 30.649 52.5703 31.0734C51.9073 31.4911 51.3729 32.0879 51.0273 32.7965C50.6476 33.5973 50.4603 34.4776 50.4806 35.3655C50.4613 36.2562 50.6485 37.1391 51.0273 37.9434C51.3701 38.6563 51.905 39.2566 52.5703 39.6754C53.2664 40.1006 54.0675 40.3171 54.8805 40.2999C55.6709 40.3254 56.4488 40.0948 57.1006 39.6418C57.7525 39.1888 58.2443 38.537 58.5044 37.7814L61.2319 39.112C60.9677 39.8779 60.5316 40.5715 59.9578 41.1384C59.3321 41.7611 58.5916 42.2536 57.7784 42.5879C56.8575 42.9604 55.8722 43.1429 54.8805 43.1246Z" fill="black"/>
<path d="M68.1789 43.1246C67.1522 43.1381 66.1395 42.882 65.2398 42.3812C64.3709 41.8983 63.6426 41.1928 63.128 40.3355C62.613 39.4377 62.3418 38.4181 62.3418 37.38C62.3418 36.3419 62.613 35.3223 63.128 34.4244C63.645 33.5713 64.3728 32.8693 65.2398 32.3877C66.1415 31.8988 67.1486 31.6429 68.1716 31.6429C69.1946 31.6429 70.2017 31.8988 71.1034 32.3877C71.9657 32.8714 72.6896 33.5725 73.2049 34.423C73.7199 35.3208 73.9911 36.3404 73.9911 37.3785C73.9911 38.4166 73.7199 39.4362 73.2049 40.3341C72.6921 41.1892 71.9678 41.8943 71.1034 42.3797C70.2092 42.8811 69.2012 43.1378 68.1789 43.1246ZM68.1789 40.4054C68.68 40.4171 69.174 40.284 69.603 40.0218C70.013 39.7624 70.3437 39.3929 70.5582 38.9544C70.798 38.4667 70.918 37.9276 70.9079 37.383C70.9186 36.8416 70.7985 36.3057 70.5582 35.8219C70.3392 35.3866 70.0095 35.0181 69.603 34.7545C69.1759 34.4868 68.6812 34.3504 68.1789 34.362C67.674 34.3512 67.1767 34.4874 66.7461 34.7545C66.3348 35.0159 66.0008 35.3847 65.7791 35.8219C65.5393 36.3059 65.4197 36.8417 65.4308 37.383C65.4202 37.9275 65.5397 38.4666 65.7791 38.9544C65.9962 39.3949 66.3313 39.7648 66.7461 40.0218C67.1786 40.2833 67.6752 40.4163 68.1789 40.4054Z" fill="black"/>
<path d="M75.748 42.8837V31.8822H78.5402V34.5582L78.2463 34.1122C78.405 33.2668 78.7896 32.6424 79.3999 32.239C80.0556 31.8238 80.8178 31.6138 81.591 31.6354C82.4352 31.6185 83.2647 31.8605 83.9703 32.3297C84.2952 32.5395 84.576 32.8122 84.7964 33.1322C85.0168 33.4521 85.1725 33.813 85.2547 34.194L84.3979 34.2743C84.7565 33.3753 85.2679 32.7103 85.9321 32.2791C86.6301 31.8399 87.4396 31.6162 88.2614 31.6354C88.9886 31.6207 89.7066 31.8013 90.3423 32.1587C90.9413 32.5027 91.4343 33.0081 91.7663 33.6186C92.123 34.2926 92.3002 35.0488 92.2807 35.813V42.8837H89.2886V36.4567C89.2987 36.0745 89.2202 35.6952 89.0594 35.3492C88.9154 35.0503 88.6907 34.7988 88.4113 34.6236C88.1016 34.452 87.7541 34.362 87.401 34.362C87.0478 34.362 86.7004 34.452 86.3907 34.6236C86.1073 34.7966 85.8793 35.0485 85.7338 35.3492C85.573 35.6952 85.4944 36.0745 85.5045 36.4567V42.8837H82.5183V36.4567C82.5284 36.0745 82.4499 35.6952 82.2891 35.3492C82.1452 35.0507 81.9211 34.7992 81.6425 34.6236C81.3325 34.452 80.9848 34.3621 80.6314 34.3621C80.278 34.3621 79.9303 34.452 79.6204 34.6236C79.337 34.7966 79.109 35.0485 78.9635 35.3492C78.8027 35.6952 78.7241 36.0745 78.7342 36.4567V42.8837H75.748Z" fill="black"/>
<path d="M94.2441 47.1728V31.8837H97.0363V33.9799L96.7777 33.3748C97.142 32.82 97.6505 32.3776 98.2472 32.0963C98.9112 31.7859 99.6366 31.6334 100.368 31.6503C101.356 31.6367 102.329 31.9018 103.176 32.4159C104.005 32.9187 104.691 33.6302 105.167 34.4809C105.663 35.3676 105.917 36.3718 105.902 37.3904C105.914 38.4053 105.663 39.4058 105.175 40.2924C104.708 41.1511 104.024 41.8693 103.194 42.3738C102.334 42.8913 101.348 43.1564 100.347 43.1394C99.6407 43.1458 98.9404 43.0051 98.2899 42.7261C97.6816 42.4692 97.1549 42.048 96.7674 41.5085L97.245 40.8841V47.1877L94.2441 47.1728ZM99.9755 40.4054C100.491 40.4156 100.999 40.2829 101.445 40.0218C101.87 39.7679 102.215 39.3979 102.441 38.9544C102.687 38.4684 102.81 37.9286 102.8 37.3829C102.811 36.8405 102.687 36.304 102.441 35.8219C102.211 35.3817 101.866 35.0128 101.445 34.7545C101.001 34.4878 100.492 34.3519 99.9755 34.362C99.475 34.3537 98.9821 34.486 98.5514 34.7441C98.1329 34.9999 97.7945 35.3706 97.5756 35.813C97.3463 36.3041 97.2273 36.8405 97.2273 37.3837C97.2273 37.9269 97.3463 38.4633 97.5756 38.9544C97.7938 39.397 98.1323 39.7673 98.5514 40.0218C98.9829 40.2819 99.4777 40.4148 99.9799 40.4054H99.9755Z" fill="black"/>
<path d="M111.011 43.1246C110.315 43.1413 109.624 43.0112 108.98 42.7425C108.444 42.5168 107.986 42.1342 107.666 41.6438C107.353 41.1365 107.193 40.5472 107.208 39.949C107.198 39.3755 107.343 38.8102 107.627 38.3136C107.94 37.8039 108.384 37.3898 108.911 37.1154C109.586 36.7607 110.317 36.5287 111.071 36.43L114.396 35.8859V38.1025L111.603 38.605C111.248 38.6553 110.912 38.7977 110.628 39.0183C110.513 39.1228 110.422 39.2522 110.364 39.3969C110.305 39.5415 110.279 39.6977 110.288 39.8539C110.282 40.0065 110.313 40.1583 110.379 40.2956C110.446 40.4329 110.545 40.5514 110.667 40.6403C110.94 40.8355 111.269 40.9348 111.603 40.9228C112.055 40.9321 112.501 40.8209 112.897 40.6002C113.26 40.394 113.56 40.0905 113.764 39.723C113.97 39.3515 114.077 38.9316 114.072 38.5054V35.6376C114.074 35.437 114.032 35.2384 113.947 35.0569C113.863 34.8754 113.739 34.7156 113.584 34.5895C113.258 34.307 112.817 34.1658 112.262 34.1658C111.758 34.1575 111.265 34.3139 110.857 34.6118C110.456 34.9048 110.149 35.3107 109.975 35.7788L107.586 34.6311C107.791 34.0248 108.14 33.4787 108.603 33.0403C109.085 32.5857 109.654 32.236 110.275 32.013C110.958 31.7652 111.679 31.6423 112.404 31.6503C113.242 31.6334 114.072 31.8056 114.835 32.1543C115.5 32.4568 116.069 32.9413 116.477 33.5532C116.874 34.1718 117.079 34.8969 117.064 35.6346V42.8867H114.272V41.1101L114.95 40.9897C114.66 41.4407 114.304 41.8447 113.894 42.188C113.511 42.5031 113.071 42.7422 112.6 42.8927C112.085 43.0525 111.549 43.1307 111.011 43.1246Z" fill="black"/>
<path d="M119.256 42.8837V31.8822H122.048V34.0587L121.888 33.5755C122.108 32.9551 122.543 32.4361 123.112 32.1141C123.722 31.7878 124.405 31.625 125.094 31.6413C125.847 31.6238 126.591 31.8041 127.255 32.1647C127.862 32.5041 128.362 33.0101 128.698 33.6246C129.054 34.2961 129.232 35.0496 129.215 35.8115V42.8822H126.227V36.4567C126.237 36.0724 126.152 35.6916 125.979 35.3492C125.818 35.0461 125.576 34.7948 125.281 34.6236C124.962 34.4442 124.601 34.3539 124.236 34.362C123.877 34.3576 123.522 34.4478 123.208 34.6236C122.908 34.7923 122.663 35.044 122.501 35.3492C122.327 35.6913 122.242 36.0723 122.252 36.4567V42.8837H119.256Z" fill="black"/>
<path d="M132.676 47.3557C132.365 47.356 132.056 47.3286 131.75 47.2739C131.476 47.2285 131.211 47.1403 130.964 47.0123V44.5354C131.18 44.5953 131.399 44.642 131.621 44.6752C131.851 44.7145 132.084 44.7349 132.317 44.7361C132.905 44.7361 133.319 44.5875 133.572 44.3139C133.827 44.0261 134.035 43.6995 134.189 43.3461L134.924 41.6334L134.885 44.1519L130.105 31.8837H133.312L136.478 40.6061H135.283L138.448 31.8837H141.658L136.998 43.911C136.746 44.6042 136.383 45.2507 135.923 45.8244C135.53 46.3087 135.037 46.7003 134.479 46.9721C133.914 47.2341 133.298 47.3651 132.676 47.3557Z" fill="black"/>
<path d="M8.41034 19.3316H0C0.00699807 14.2079 2.02202 9.29611 5.60327 5.67312C9.18452 2.05013 14.0397 0.0116267 19.1044 0.00454712V8.5129C16.2696 8.51762 13.5522 9.65896 11.5477 11.6868C9.54319 13.7147 8.415 16.4637 8.41034 19.3316Z" fill="black"/>
<path d="M19.1083 47.1713C14.0436 47.1643 9.18843 45.1257 5.60718 41.5028C2.02593 37.8798 0.0109043 32.968 0.00390625 27.8443H8.41424C8.41424 29.9849 9.0417 32.0774 10.2173 33.8573C11.3928 35.6372 13.0637 37.0244 15.0186 37.8436C16.9735 38.6628 19.1246 38.8771 21.1999 38.4595C23.2752 38.0419 25.1814 37.0111 26.6776 35.4974C28.1739 33.9838 29.1928 32.0553 29.6056 29.9558C30.0184 27.8563 29.8065 25.6801 28.9968 23.7025C28.187 21.7248 26.8158 20.0344 25.0564 18.8452C23.2971 17.6559 21.2286 17.0211 19.1127 17.0211V8.50833C24.1807 8.50833 29.0411 10.545 32.6246 14.1704C36.2082 17.7958 38.2215 22.7128 38.2215 27.8398C38.2215 32.9669 36.2082 37.8839 32.6246 41.5093C29.0411 45.1346 24.1807 47.1713 19.1127 47.1713H19.1083Z" fill="black"/>
</g>
<defs>
<clipPath id="clip0_1019_5408">
<rect width="144" height="47.3557" fill="white"/>
</clipPath>
</defs>
</svg>
