<svg width="16" height="16" viewBox="0 0 16 16" fill="none" xmlns="http://www.w3.org/2000/svg">
<mask id="mask0_1019_6637" style="mask-type:alpha" maskUnits="userSpaceOnUse" x="0" y="-1" width="16" height="17">
<rect y="-0.666672" width="16" height="16"/>
</mask>
<g mask="url(#mask0_1019_6637)">
<path d="M3.76719 6.01666L5.06719 6.56666C5.22274 6.25554 5.38385 5.95554 5.55052 5.66666C5.71719 5.37777 5.90052 5.08888 6.10052 4.79999L5.16719 4.61666L3.76719 6.01666ZM6.13385 7.39999L8.03385 9.28332C8.50052 9.10554 9.00052 8.83332 9.53385 8.46666C10.0672 8.09999 10.5672 7.68332 11.0339 7.21666C11.8116 6.43888 12.42 5.57499 12.8589 4.62499C13.2977 3.67499 13.4894 2.79999 13.4339 1.99999C12.6339 1.94443 11.7561 2.1361 10.8005 2.57499C9.84497 3.01388 8.9783 3.62221 8.20052 4.39999C7.73385 4.86666 7.31719 5.36666 6.95052 5.89999C6.58385 6.43332 6.31163 6.93332 6.13385 7.39999ZM9.10052 6.31666C8.84497 6.0611 8.71719 5.74721 8.71719 5.37499C8.71719 5.00277 8.84497 4.68888 9.10052 4.43332C9.35608 4.17777 9.67274 4.04999 10.0505 4.04999C10.4283 4.04999 10.745 4.17777 11.0005 4.43332C11.2561 4.68888 11.3839 5.00277 11.3839 5.37499C11.3839 5.74721 11.2561 6.0611 11.0005 6.31666C10.745 6.57221 10.4283 6.69999 10.0505 6.69999C9.67274 6.69999 9.35608 6.57221 9.10052 6.31666ZM9.41719 11.6667L10.8172 10.2667L10.6339 9.33332C10.345 9.53332 10.0561 9.71388 9.76719 9.87499C9.4783 10.0361 9.1783 10.1944 8.86719 10.35L9.41719 11.6667ZM14.6339 0.783322C14.845 2.12777 14.7144 3.4361 14.2422 4.70832C13.77 5.98054 12.9561 7.19443 11.8005 8.34999L12.1339 9.99999C12.1783 10.2222 12.1672 10.4389 12.1005 10.65C12.0339 10.8611 11.9227 11.0444 11.7672 11.2L8.96719 14L7.56719 10.7167L4.71719 7.86666L1.43385 6.46666L4.21719 3.66666C4.37274 3.5111 4.55885 3.39999 4.77552 3.33332C4.99219 3.26666 5.21163 3.25554 5.43385 3.29999L7.08385 3.63332C8.23941 2.47777 9.45052 1.6611 10.7172 1.18332C11.9839 0.705545 13.2894 0.572211 14.6339 0.783322ZM2.61719 9.98332C3.00608 9.59443 3.48108 9.39721 4.04219 9.39166C4.6033 9.3861 5.0783 9.57777 5.46719 9.96666C5.85608 10.3555 6.04774 10.8305 6.04219 11.3917C6.03663 11.9528 5.83941 12.4278 5.45052 12.8167C5.17274 13.0944 4.70885 13.3333 4.05885 13.5333C3.40885 13.7333 2.51163 13.9111 1.36719 14.0667C1.52274 12.9222 1.70052 12.025 1.90052 11.375C2.10052 10.725 2.33941 10.2611 2.61719 9.98332ZM3.56719 10.9167C3.45608 11.0278 3.34497 11.2305 3.23385 11.525C3.12274 11.8194 3.04497 12.1167 3.00052 12.4167C3.30052 12.3722 3.59774 12.2972 3.89219 12.1917C4.18663 12.0861 4.38941 11.9778 4.50052 11.8667C4.63385 11.7333 4.70608 11.5722 4.71719 11.3833C4.7283 11.1944 4.66719 11.0333 4.53385 10.9C4.40052 10.7667 4.23941 10.7028 4.05052 10.7083C3.86163 10.7139 3.70052 10.7833 3.56719 10.9167Z" />
</g>
</svg>
