<svg width="144" height="54" fill="none" xmlns="http://www.w3.org/2000/svg"><g clip-path="url(#prefix__prefix__clip0_1019_5408)" fill="#000"><path d="M50.742 23.582V10.086h-4.101V8.58h9.756v1.512h-4.062v13.496l-1.593-.006zm7.408 0V8.58h1.494v6.305l-.34-.08a3.382 3.382 0 011.305-1.652 3.696 3.696 0 012.1-.604 4.001 4.001 0 012.041.524c.597.342 1.092.84 1.434 1.44a4.07 4.07 0 01.525 2.06v7.009h-1.49v-6.427a3.58 3.58 0 00-.359-1.671 2.601 2.601 0 00-.986-1.057 2.736 2.736 0 00-1.424-.373 2.787 2.787 0 00-1.433.373 2.626 2.626 0 00-1.005 1.067 3.483 3.483 0 00-.368 1.661v6.427H58.15zm14.497.241a4.043 4.043 0 01-1.812-.393 3.133 3.133 0 01-1.255-1.078 2.757 2.757 0 01-.459-1.571 3.322 3.322 0 01.36-1.54 3.085 3.085 0 011.115-1.18 5.18 5.18 0 011.93-.683l4.177-.706v1.37l-3.82.647c-.77.135-1.325.383-1.663.744a1.828 1.828 0 00-.508 1.289 1.585 1.585 0 00.568 1.228c.41.348.935.528 1.47.504a3.747 3.747 0 001.91-.473 3.374 3.374 0 001.274-1.28 3.558 3.558 0 00.459-1.793v-2.739a1.99 1.99 0 00-.697-1.571c-.464-.404-1.068-.605-1.812-.605a2.998 2.998 0 00-1.665.463c-.499.315-.896.77-1.143 1.31l-1.353-.743a3.52 3.52 0 01.945-1.249 5.13 5.13 0 011.484-.892 4.647 4.647 0 011.732-.331 4.52 4.52 0 012.084.455 3.51 3.51 0 011.414 1.28c.34.566.513 1.22.497 1.883v7.413H76.39v-2.156l.219.222c-.204.426-.5.802-.866 1.098-.41.34-.875.605-1.374.785-.552.2-1.135.298-1.722.292zm12.184-.121c-.955 0-1.69-.282-2.204-.846-.514-.564-.775-1.37-.782-2.417v-6.144h-1.972v-1.51h.503a1.352 1.352 0 001.075-.447c.27-.315.412-.72.399-1.137v-.907h1.493v2.497h2.351v1.511h-2.351v6.145a2.66 2.66 0 00.158.957c.106.274.299.504.549.654.319.177.68.26 1.044.242.106 0 .233-.007.38-.02.147-.014.271-.027.377-.04v1.35a3.824 3.824 0 01-.538.09c-.202.012-.363.022-.482.022zm13.81.121a8.183 8.183 0 01-3.107-.583 7.556 7.556 0 01-3.48-2.839 7.69 7.69 0 01-1.278-4.333c-.01-1.05.19-2.092.588-3.062.38-.924.942-1.76 1.651-2.458a7.667 7.667 0 012.499-1.635 8.652 8.652 0 016.251 0c.931.374 1.78.93 2.499 1.635a7.435 7.435 0 011.653 2.458c.397.97.597 2.012.588 3.062a7.684 7.684 0 01-1.279 4.334 7.55 7.55 0 01-3.48 2.838 8.182 8.182 0 01-3.105.583zm0-2.825a4.839 4.839 0 001.882-.363 4.706 4.706 0 001.523-1.018 4.485 4.485 0 001.015-1.561 5.365 5.365 0 00.359-1.994 5.283 5.283 0 00-.359-1.982 4.63 4.63 0 00-1.015-1.56 4.506 4.506 0 00-1.523-1.017 5.2 5.2 0 00-3.763 0c-.571.23-1.09.576-1.524 1.017a4.65 4.65 0 00-1.016 1.56 5.29 5.29 0 00-.358 1.985 5.36 5.36 0 00.359 1.994 4.516 4.516 0 001.015 1.56 4.72 4.72 0 001.524 1.02c.597.246 1.236.37 1.881.365v-.006zm9.838 6.867V12.583h2.792v2.092l-.26-.605a3.587 3.587 0 011.469-1.279 4.77 4.77 0 012.121-.453 5.287 5.287 0 012.808.766 5.622 5.622 0 011.991 2.065c.496.887.75 1.892.735 2.91a5.882 5.882 0 01-.726 2.901 5.538 5.538 0 01-1.982 2.082 5.358 5.358 0 01-2.847.764 5.1 5.1 0 01-2.057-.412 3.617 3.617 0 01-1.523-1.22l.478-.623v6.297l-2.999-.003zm5.731-6.761a2.803 2.803 0 001.469-.382c.424-.255.769-.625.995-1.068.246-.486.37-1.026.359-1.571a3.265 3.265 0 00-.359-1.561 2.718 2.718 0 00-.995-1.068 2.745 2.745 0 00-1.469-.394 2.676 2.676 0 00-1.424.384 2.6 2.6 0 00-.976 1.067 3.722 3.722 0 000 3.143c.219.442.558.812.976 1.068.431.258.925.39 1.427.382h-.003zm12.898 2.719c-1.155 0-2.157-.258-3.007-.775a5.326 5.326 0 01-1.97-2.081 6.046 6.046 0 01-.698-2.9 5.869 5.869 0 01.727-2.941 5.478 5.478 0 011.96-2.036 5.295 5.295 0 012.793-.743 5.947 5.947 0 012.291.413 4.72 4.72 0 011.682 1.159 5.138 5.138 0 011.045 1.723 6.1 6.1 0 01.359 2.124c0 .216-.011.427-.03.635a2.261 2.261 0 01-.11.534h-8.143v-2.223h6.452l-1.414 1.048a2.863 2.863 0 00-.019-1.542 2.07 2.07 0 00-.767-1.067 2.25 2.25 0 00-1.345-.393 2.29 2.29 0 00-1.333.384 2.28 2.28 0 00-.836 1.127 4.447 4.447 0 00-.219 1.814 3.369 3.369 0 00.219 1.635c.184.454.504.838.916 1.099a3.04 3.04 0 002.856.07c.371-.209.676-.518.882-.892l2.39 1.147a3.651 3.651 0 01-1.007 1.413 4.926 4.926 0 01-1.617.936 6.092 6.092 0 01-2.057.332zm6.935-.241V12.58h2.792v2.175l-.159-.483c.22-.62.655-1.14 1.225-1.46a3.979 3.979 0 011.981-.474 4.328 4.328 0 012.16.523 3.71 3.71 0 011.444 1.462 4.44 4.44 0 01.518 2.185v7.071h-2.986v-6.424a2.311 2.311 0 00-.25-1.108 1.835 1.835 0 00-.697-.725 2.2 2.2 0 00-2.081 0c-.299.169-.544.42-.707.725a2.322 2.322 0 00-.248 1.108v6.427h-2.992zM54.88 43.125a7.43 7.43 0 01-2.956-.585 7.272 7.272 0 01-2.38-1.635 7.517 7.517 0 01-1.582-2.458 8.173 8.173 0 01-.569-3.082 8.382 8.382 0 01.558-3.092 7.227 7.227 0 011.562-2.446 7.13 7.13 0 012.39-1.623 7.582 7.582 0 012.977-.575 7.363 7.363 0 012.898.544 6.683 6.683 0 012.18 1.45 5.248 5.248 0 011.274 2.015l-2.728 1.33a3.75 3.75 0 00-1.403-1.86 3.681 3.681 0 00-2.22-.659 4.272 4.272 0 00-2.31.624 4.223 4.223 0 00-1.544 1.724c-.38.8-.567 1.68-.546 2.569-.02.89.167 1.773.546 2.577a4.191 4.191 0 001.543 1.732 4.258 4.258 0 002.31.625 3.681 3.681 0 002.22-.658 3.75 3.75 0 001.404-1.86l2.728 1.33c-.264.766-.7 1.46-1.274 2.026a6.703 6.703 0 01-2.18 1.45 7.364 7.364 0 01-2.898.537zm13.299 0a5.883 5.883 0 01-2.94-.744 5.687 5.687 0 01-2.111-2.045 5.941 5.941 0 010-5.912 5.718 5.718 0 012.112-2.036 6.15 6.15 0 015.863 0 5.745 5.745 0 012.102 2.035 5.941 5.941 0 010 5.911 5.715 5.715 0 01-2.102 2.046 5.824 5.824 0 01-2.924.745zm0-2.72c.501.012.995-.121 1.424-.383.41-.26.74-.63.955-1.068.24-.487.36-1.026.35-1.571a3.361 3.361 0 00-.35-1.561 2.738 2.738 0 00-.955-1.068 2.569 2.569 0 00-1.424-.392 2.611 2.611 0 00-1.433.392c-.411.262-.745.63-.967 1.068-.24.484-.36 1.02-.348 1.561-.01.544.109 1.084.348 1.571.217.44.552.81.967 1.068.433.261.93.394 1.433.383zm7.569 2.479V31.882h2.792v2.676l-.294-.446c.159-.845.544-1.47 1.154-1.873a3.891 3.891 0 012.191-.604 4.146 4.146 0 012.38.695c.324.21.605.482.825.802.22.32.376.681.459 1.062l-.857.08c.359-.899.87-1.564 1.534-1.995a4.189 4.189 0 012.33-.644 4.077 4.077 0 012.08.524c.6.344 1.092.85 1.424 1.46a4.45 4.45 0 01.515 2.194v7.07h-2.992v-6.426a2.473 2.473 0 00-.23-1.108 1.755 1.755 0 00-.648-.725 2.084 2.084 0 00-2.02 0 1.734 1.734 0 00-.657.725c-.161.346-.24.726-.23 1.108v6.427h-2.986v-6.427a2.473 2.473 0 00-.229-1.108 1.761 1.761 0 00-.647-.725 2.087 2.087 0 00-2.022 0 1.734 1.734 0 00-.657.725c-.16.346-.239.726-.229 1.108v6.427h-2.986zm18.496 4.289v-15.29h2.792v2.097l-.258-.605a3.591 3.591 0 011.47-1.279 4.748 4.748 0 012.12-.446 5.272 5.272 0 012.808.766 5.627 5.627 0 011.991 2.065c.496.887.75 1.89.735 2.91a5.876 5.876 0 01-.727 2.901 5.522 5.522 0 01-1.981 2.082 5.345 5.345 0 01-2.847.765 5.1 5.1 0 01-2.057-.413 3.6 3.6 0 01-1.523-1.218l.478-.624v6.304l-3-.015zm5.731-6.768a2.798 2.798 0 001.47-.383c.425-.254.77-.624.996-1.068a3.344 3.344 0 00.359-1.571 3.29 3.29 0 00-.359-1.561c-.23-.44-.575-.81-.996-1.068a2.749 2.749 0 00-1.47-.392c-.5-.008-.993.124-1.424.382a2.607 2.607 0 00-.975 1.069 3.713 3.713 0 000 3.141c.218.443.556.813.975 1.068.432.26.927.393 1.429.383h-.005zm11.036 2.72a4.962 4.962 0 01-2.031-.383 2.927 2.927 0 01-1.314-1.098 3.082 3.082 0 01-.458-1.695 3.183 3.183 0 01.419-1.635c.313-.51.757-.924 1.284-1.199a6.44 6.44 0 012.16-.685l3.325-.544v2.216l-2.793.503a2.06 2.06 0 00-.975.413 1.05 1.05 0 00-.34.836.932.932 0 00.379.786c.273.196.602.295.936.283a2.54 2.54 0 001.294-.323c.363-.206.663-.51.867-.877.206-.371.313-.791.308-1.218v-2.867a1.337 1.337 0 00-.488-1.048c-.326-.283-.767-.424-1.322-.424a2.317 2.317 0 00-1.405.446 2.542 2.542 0 00-.882 1.167l-2.389-1.148a3.918 3.918 0 011.017-1.59 4.803 4.803 0 011.672-1.028 6.046 6.046 0 012.129-.363 5.575 5.575 0 012.431.504 3.932 3.932 0 011.642 1.4c.397.618.602 1.343.587 2.08v7.253h-2.792V41.11l.678-.12c-.29.45-.646.855-1.056 1.198a3.912 3.912 0 01-1.294.705 5.164 5.164 0 01-1.589.232zm8.245-.241V31.882h2.792v2.177l-.16-.483c.22-.62.655-1.14 1.224-1.462a4.002 4.002 0 011.982-.473 4.315 4.315 0 012.161.524 3.71 3.71 0 011.443 1.46c.356.671.534 1.425.517 2.187v7.07h-2.988v-6.425a2.322 2.322 0 00-.248-1.108 1.832 1.832 0 00-.698-.725 2.04 2.04 0 00-1.045-.262 2.054 2.054 0 00-1.028.262c-.3.168-.545.42-.707.725a2.31 2.31 0 00-.249 1.108v6.427h-2.996zm13.42 4.472c-.311 0-.62-.027-.926-.082a2.649 2.649 0 01-.786-.262v-2.477c.216.06.435.107.657.14.23.04.463.06.696.061.588 0 1.002-.148 1.255-.422.255-.288.463-.614.617-.968l.735-1.713-.039 2.519-4.78-12.268h3.207l3.166 8.722h-1.195l3.165-8.722h3.21l-4.66 12.027a6.738 6.738 0 01-1.075 1.913 4.266 4.266 0 01-1.444 1.148 4.136 4.136 0 01-1.803.384zM8.41 19.332H0A19.469 19.469 0 015.603 5.673 19.02 19.02 0 0119.104.005v8.508a10.65 10.65 0 00-7.556 3.174 10.9 10.9 0 00-3.138 7.645zm10.698 27.839a19.02 19.02 0 01-13.5-5.668A19.469 19.469 0 01.003 27.844h8.41c0 2.14.628 4.233 1.803 6.013a10.726 10.726 0 004.802 3.987 10.584 10.584 0 006.18.615 10.66 10.66 0 005.479-2.962 10.862 10.862 0 002.928-5.541c.412-2.1.2-4.276-.61-6.253a10.797 10.797 0 00-3.94-4.858 10.61 10.61 0 00-5.943-1.824V8.508a19 19 0 0113.512 5.662 19.446 19.446 0 015.596 13.67 19.446 19.446 0 01-5.596 13.67 18.998 18.998 0 01-13.512 5.661h-.005z"/></g><defs><clipPath id="prefix__prefix__clip0_1019_5408"><path fill="#fff" d="M0 0h144v47.356H0z"/></clipPath></defs></svg>